<svg xmlns="http://www.w3.org/2000/svg" xml:space="preserve" viewBox="0 0 512 512">
  <path fill="#293292" d="M230.5 1c-20.6 2.3-53.6 9.9-62.7 14.6-1.5.8-2.9 1.4-3 1.4-1.4-.5-21.7 8.8-32.3 14.7C77.9 62.1 37.4 109 16.2 166.5c-6.6 17.8-11.8 38.3-13.6 53-.4 2.7-.9 6.6-1.2 8.5-1 6.1-1.2 45.1-.3 53.5 10.1 92.7 66.1 170.4 150.1 208.1 16.5 7.4 39.7 14.8 55.8 17.7 6.3 1.2 9.8 1.8 13.5 2.2 2.2.3 6.7.9 10 1.3 7.8.9 44 .9 53.1-.1 6.3-.7 14.5-2 26.4-4.3 1.9-.3 9.1-2.2 16-4.1 74.5-21 135-74.4 165.7-146.3 4.2-9.8 11.9-32.9 12.9-38.4.3-1.7.9-4.7 1.4-6.6 1.5-5.9 4-20.8 4.8-29.4 1.4-15.8.6-57.2-1.3-62.9-.2-.7-.7-3-1-5.2-1.5-11.1-7.3-33.4-11.5-44.5-1.2-3-2.8-7.3-3.6-9.4-2.5-6.9-12.5-26.7-18.2-36.1C443.4 70.9 394.4 32 335.4 12.6c-4.4-1.4-9.1-2.8-10.4-3.1-1.2-.2-3.7-.9-5.4-1.4-4-1.3-21.7-4.8-28.1-5.6-2.7-.4-6.1-.9-7.5-1.2-4.2-.8-46-1.1-53.5-.3zM272 54.5c19.2 1.3 41.6 6.6 59.9 14.1 55.8 22.9 97.8 68 116.5 125 3.1 9.3 2.8 8.3 6 23.9 2.6 13 3.9 25.4 3.9 38 0 7.9-1 22.2-1.7 26-.2 1.1-.7 4-1 6.5-1.4 10.3-5.8 26.8-10.3 39-8.3 22.3-22.3 45.6-37.7 63-6.4 7.2-19.9 20-22.8 21.8-1.6.9-2.8 1.9-2.8 2.3 0 1.4-25.8 17.9-35.8 22.9-21.6 10.8-48.7 18.5-71.9 20.5-13.5 1.2-36.1.7-45.3-1-.8-.1-3.5-.6-6-1-7.1-1.2-7.7-1.3-18-4-48.6-12.5-91.3-43.3-119.1-86-4.1-6.4-14.6-26.8-18.2-35.5-4.7-11.3-10.8-34.9-12.2-47-.3-3-.8-7.2-1.1-9.3-1.3-9.9-.5-33.9 1.6-47.5 1.8-11.3 2-12.3 4.6-22.1 17.1-64.2 65.5-116.8 127.9-138.8 3.9-1.3 7.7-2.6 8.5-2.8s4.2-1.2 7.5-2.1c6.9-1.8 8.1-2.1 15-3.4 8.7-1.6 11.8-2 21.5-2.6 5.2-.4 9.6-.7 9.7-.8.3-.3 12.1.2 21.3.9z"/>
  <path fill="#293292" d="M293.8 112.5c-.2.1-3.2.5-6.8.9-12.6 1.1-29.7 6.5-42 13.3-33.7 18.5-56.1 51.7-60.6 89.8-6.1 51.6 22.8 101.4 70.6 121.8 16.3 6.9 28.5 9.2 48 9.2 19.4-.1 32.4-3.2 50.5-12.1 24.1-11.8 42.6-30.5 54-54.7 4.6-9.7 8.8-23.2 10.4-33.2 1.4-8.9 1.1-29.4-.6-38.2-9.4-50.5-49.4-88.8-100.3-95.9-4.3-.6-22.7-1.3-23.2-.9zm19.2 53.1c5.4.9 15 4.4 20 7.2 21.1 12 33.6 33 33.7 56.8.2 31.6-21.3 58-52.8 65-8.8 1.9-26.8.4-34.9-2.9-1.4-.6-2.7-1.1-3-1.1-.3-.1-3.2-1.6-6.6-3.4-15.9-8.6-28.2-25.3-32-43.5-1.4-6.8-1.9-17.9-1-22.7.3-1.4.7-3.6 1-5 2.2-11.5 9.6-24.5 18.9-33.3 15-14.3 36.3-20.7 56.7-17.1zm-195 46.5c-9.3 1.8-17.6 8.4-21.9 17.4-3.3 6.8-3.4 18-.4 24.6s8.6 12.4 15.1 15.6c4.8 2.4 6.9 2.8 13.2 2.7 12.7-.2 22.4-6.2 27.6-17.1 10.7-22.7-9-48.1-33.6-43.2zm40 70.1c-16.4 2.9-26.4 19-21.9 35.3.6 2.2 4.5 9.8 8.6 17 4.2 7.1 8.3 14.3 9.3 16 .9 1.6 7.4 12.9 14.4 24.9 6.9 12 12.6 22.2 12.6 22.6 0 2 10 11.1 14 12.9 16.8 7.3 35.5-2.3 39.2-20.2 1.7-7.8-.1-14.4-6.8-25.8-3.1-5.2-6.8-11.7-8.3-14.4-7.1-12.7-32.8-56.6-34.6-58.9-5.4-7.2-16.8-11.2-26.5-9.4z"/>
</svg>
