<svg xmlns="http://www.w3.org/2000/svg" xml:space="preserve" viewBox="0 0 100 100"><style>.s {fill:#2A388F;}@media(prefers-color-scheme:dark){.s{fill:#fff;}}</style><path class="s" d="M45 .1C41 .5 34.5 2 32.7 2.9c-.3.2-.6.3-.6.3-.3-.1-4.2 1.7-6.3 2.9C15.1 12 7.2 21.2 3.1 32.5 1.8 36 .8 40 .4 42.9c-.1.5-.2 1.3-.2 1.7C0 45.7-.1 53.3.1 55c2 18.1 12.9 33.4 29.4 40.7 3.2 1.4 7.8 2.9 10.9 3.5 1.2.2 1.9.4 2.6.4.4.1 1.3.2 2 .3 1.5.2 8.6.2 10.4 0 1.2-.1 2.8-.4 5.2-.8.4-.1 1.8-.4 3.1-.8 14.6-4.1 26.4-14.6 32.4-28.6.8-1.9 2.3-6.4 2.5-7.5.1-.3.2-.9.3-1.3.3-1.2.8-4.1.9-5.8.3-3.1.1-11.2-.3-12.3 0-.1-.1-.6-.2-1-.3-2.2-1.4-6.5-2.3-8.7-.2-.6-.5-1.4-.7-1.8-.3-1.5-2.3-5.4-3.4-7.3C86.7 13.7 77.1 6.1 65.5 2.3c-.9-.3-1.8-.5-2-.6-.2 0-.7-.2-1.1-.3-.8-.3-4.2-.9-5.5-1.1-.5-.1-1.2-.2-1.5-.2-.7-.1-8.9-.2-10.4 0zm8.1 10.4c3.8.3 8.1 1.3 11.7 2.8 11 4.5 19.2 13.3 22.9 24.5.6 1.8.5 1.6 1.2 4.7.5 2.5.8 5 .8 7.4 0 1.5-.2 4.3-.3 5.1 0 .2-.1.8-.2 1.3-.3 2-1.1 5.2-2 7.6-1.6 4.4-4.4 8.9-7.4 12.3-1.3 1.4-3.9 3.9-4.5 4.3-.3.2-.5.4-.5.5 0 .3-5 3.5-7 4.5-4.2 2.1-9.5 3.6-14.1 4-2.6.2-7.1.1-8.9-.2-.2 0-.7-.1-1.2-.2-1.4-.2-1.5-.3-3.5-.8-9.5-2.4-17.9-8.5-23.3-16.8-.8-1.3-2.9-5.2-3.6-6.9-.9-2.2-2.1-6.8-2.4-9.2-.1-.6-.2-1.4-.2-1.8-.3-1.9-.1-6.6.3-9.3.4-2.2.4-2.4.9-4.3 3.3-12.6 12.8-22.9 25-27.2.8-.3 1.5-.5 1.7-.5.2 0 .8-.2 1.5-.4 1.4-.4 1.6-.4 2.9-.7 1.7-.3 2.3-.4 4.2-.5 1-.1 1.9-.1 1.9-.2 0-.2 2.3-.1 4.1 0z"/><path class="s" d="M57.4 21.9s-.6.1-1.3.2c-2.5.2-5.8 1.3-8.2 2.6-6.6 3.6-11 10.1-11.9 17.6-1.2 10.1 4.5 19.8 13.8 23.8 3.2 1.4 5.6 1.8 9.4 1.8 3.8 0 6.3-.6 9.9-2.4 4.7-2.3 8.3-6 10.6-10.7.9-1.9 1.7-4.5 2-6.5.3-1.7.2-5.8-.1-7.5C79.8 30.9 71.9 23.4 62 22c-.9-.1-4.5-.2-4.6-.1zm3.8 10.4c1.1.2 2.9.9 3.9 1.4 4.1 2.3 6.6 6.5 6.6 11.1 0 6.2-4.2 11.4-10.3 12.7-1.7.4-5.2.1-6.8-.6-.3-.1-.5-.2-.6-.2-.1 0-.6-.3-1.3-.7-3.1-1.7-5.5-5-6.3-8.5-.3-1.3-.4-3.5-.2-4.4.1-.3.1-.7.2-1 .4-2.3 1.9-4.8 3.7-6.5 2.9-2.8 7.1-4 11.1-3.3zM23 41.4c-1.8.4-3.4 1.6-4.3 3.4-.6 1.3-.7 3.5-.1 4.8.6 1.3 1.7 2.4 3 3.1.9.5 1.4.5 2.6.5 2.5 0 4.4-1.2 5.4-3.3 2.1-4.5-1.8-9.5-6.6-8.5zm7.8 13.7c-3.2.6-5.2 3.7-4.3 6.9.1.4.9 1.9 1.7 3.3.8 1.4 1.6 2.8 1.8 3.1.2.3 1.4 2.5 2.8 4.9 1.4 2.3 2.5 4.3 2.5 4.4 0 .4 2 2.2 2.7 2.5 3.3 1.4 6.9-.5 7.7-4 .3-1.5 0-2.8-1.3-5-.6-1-1.3-2.3-1.6-2.8-1.4-2.4-6.4-11-6.8-11.5-1-1.4-3.3-2.2-5.2-1.8z"/></svg>
