<?xml version="1.0" encoding="utf-8"?>
<svg version="1.1" id="Layer_1" xmlns="http://www.w3.org/2000/svg" xmlns:xlink="http://www.w3.org/1999/xlink" x="0px" y="0px"
	 viewBox="0 0 512 512" style="enable-background:new 0 0 512 512;" xml:space="preserve">
<g transform="translate(0.000000,512.000000) scale(0.100000,-0.100000)">
	<path class="st0" d="M2305,5110c-206-23-536-99-627-146c-15-8-29-14-30-14c-14,5-217-88-323-147c-546-304-951-773-1163-1348
		c-66-178-118-383-136-530c-4-27-9-66-12-85c-10-61-12-451-3-535C112,1378,672,601,1512,224c165-74,397-148,558-177
		c63-12,98-18,135-22c22-3,67-9,100-13c78-9,440-9,531,1c63,7,145,20,264,43c19,3,91,22,160,41c745,210,1350,744,1657,1463
		c42,98,119,329,129,384c3,17,9,47,14,66c15,59,40,208,48,294c14,158,6,572-13,629c-2,7-7,30-10,52c-15,111-73,334-115,445
		c-12,30-28,73-36,94c-25,69-125,267-182,361c-318,526-808,915-1398,1109c-44,14-91,28-104,31c-12,2-37,9-54,14
		c-40,13-217,48-281,56c-27,4-61,9-75,12C2798,5115,2380,5118,2305,5110z M2720,4575c192-13,416-66,599-141
		c558-229,978-680,1165-1250c31-93,28-83,60-239c26-130,39-254,39-380c0-79-10-222-17-260c-2-11-7-40-10-65c-14-103-58-268-103-390
		c-83-223-223-456-377-630c-64-72-199-200-228-218c-16-9-28-19-28-23c0-14-258-179-358-229c-216-108-487-185-719-205
		c-135-12-361-7-453,10c-8,1-35,6-60,10c-71,12-77,13-180,40c-486,125-913,433-1191,860c-41,64-146,268-182,355
		c-47,113-108,349-122,470c-3,30-8,72-11,93c-13,99-5,339,16,475c18,113,20,123,46,221c171,642,655,1168,1279,1388
		c39,13,77,26,85,28s42,12,75,21c69,18,81,21,150,34c87,16,118,20,215,26c52,4,96,7,97,8C2510,4587,2628,4582,2720,4575z"/>
	<path class="st0" d="M2938,3995c-2-1-32-5-68-9c-126-11-297-65-420-133c-337-185-561-517-606-898c-61-516,228-1014,706-1218
		c163-69,285-92,480-92c194,1,324,32,505,121c241,118,426,305,540,547c46,97,88,232,104,332c14,89,11,294-6,382
		c-94,505-494,888-1003,959C3127,3992,2943,3999,2938,3995z M3130,3464c54-9,150-44,200-72c211-120,336-330,337-568
		c2-316-213-580-528-650c-88-19-268-4-349,29c-14,6-27,11-30,11c-3,1-32,16-66,34c-159,86-282,253-320,435c-14,68-19,179-10,227
		c3,14,7,36,10,50c22,115,96,245,189,333C2713,3436,2926,3500,3130,3464z"/>
	<path class="st0" d="M1180,2999c-93-18-176-84-219-174c-33-68-34-180-4-246s86-124,151-156c48-24,69-28,132-27
		c127,2,224,62,276,171C1623,2794,1426,3048,1180,2999z"/>
	<path class="st0" d="M1580,2298c-164-29-264-190-219-353c6-22,45-98,86-170c42-71,83-143,93-160c9-16,74-129,144-249
		c69-120,126-222,126-226c0-20,100-111,140-129c168-73,355,23,392,202c17,78-1,144-68,258c-31,52-68,117-83,144
		c-71,127-328,566-346,589C1791,2276,1677,2316,1580,2298z"/>
</g>
</svg>
