<?xml version="1.0" standalone="no"?>
<!DOCTYPE svg PUBLIC "-//W3C//DTD SVG 20010904//EN"
 "http://www.w3.org/TR/2001/REC-SVG-20010904/DTD/svg10.dtd">
<svg version="1.0" xmlns="http://www.w3.org/2000/svg"
 width="512.000000pt" height="512.000000pt" viewBox="0 0 512.000000 512.000000"
 preserveAspectRatio="xMidYMid meet">
<metadata>
Created by potrace 1.11, written by Peter Selinger 2001-2013
</metadata>
<g transform="translate(0.000000,512.000000) scale(0.100000,-0.100000)"
fill="#000000" stroke="none">
<path d="M2305 5110 c-206 -23 -536 -99 -627 -146 -15 -8 -29 -14 -30 -14 -14
5 -217 -88 -323 -147 -546 -304 -951 -773 -1163 -1348 -66 -178 -118 -383
-136 -530 -4 -27 -9 -66 -12 -85 -10 -61 -12 -451 -3 -535 101 -927 661 -1704
1501 -2081 165 -74 397 -148 558 -177 63 -12 98 -18 135 -22 22 -3 67 -9 100
-13 78 -9 440 -9 531 1 63 7 145 20 264 43 19 3 91 22 160 41 745 210 1350
744 1657 1463 42 98 119 329 129 384 3 17 9 47 14 66 15 59 40 208 48 294 14
158 6 572 -13 629 -2 7 -7 30 -10 52 -15 111 -73 334 -115 445 -12 30 -28 73
-36 94 -25 69 -125 267 -182 361 -318 526 -808 915 -1398 1109 -44 14 -91 28
-104 31 -12 2 -37 9 -54 14 -40 13 -217 48 -281 56 -27 4 -61 9 -75 12 -42 8
-460 11 -535 3z m415 -535 c192 -13 416 -66 599 -141 558 -229 978 -680 1165
-1250 31 -93 28 -83 60 -239 26 -130 39 -254 39 -380 0 -79 -10 -222 -17 -260
-2 -11 -7 -40 -10 -65 -14 -103 -58 -268 -103 -390 -83 -223 -223 -456 -377
-630 -64 -72 -199 -200 -228 -218 -16 -9 -28 -19 -28 -23 0 -14 -258 -179
-358 -229 -216 -108 -487 -185 -719 -205 -135 -12 -361 -7 -453 10 -8 1 -35 6
-60 10 -71 12 -77 13 -180 40 -486 125 -913 433 -1191 860 -41 64 -146 268
-182 355 -47 113 -108 349 -122 470 -3 30 -8 72 -11 93 -13 99 -5 339 16 475
18 113 20 123 46 221 171 642 655 1168 1279 1388 39 13 77 26 85 28 8 2 42 12
75 21 69 18 81 21 150 34 87 16 118 20 215 26 52 4 96 7 97 8 3 3 121 -2 213
-9z"/>
<path d="M2938 3995 c-2 -1 -32 -5 -68 -9 -126 -11 -297 -65 -420 -133 -337
-185 -561 -517 -606 -898 -61 -516 228 -1014 706 -1218 163 -69 285 -92 480
-92 194 1 324 32 505 121 241 118 426 305 540 547 46 97 88 232 104 332 14 89
11 294 -6 382 -94 505 -494 888 -1003 959 -43 6 -227 13 -232 9z m192 -531
c54 -9 150 -44 200 -72 211 -120 336 -330 337 -568 2 -316 -213 -580 -528
-650 -88 -19 -268 -4 -349 29 -14 6 -27 11 -30 11 -3 1 -32 16 -66 34 -159 86
-282 253 -320 435 -14 68 -19 179 -10 227 3 14 7 36 10 50 22 115 96 245 189
333 150 143 363 207 567 171z"/>
<path d="M1180 2999 c-93 -18 -176 -84 -219 -174 -33 -68 -34 -180 -4 -246 30
-66 86 -124 151 -156 48 -24 69 -28 132 -27 127 2 224 62 276 171 107 227 -90
481 -336 432z"/>
<path d="M1580 2298 c-164 -29 -264 -190 -219 -353 6 -22 45 -98 86 -170 42
-71 83 -143 93 -160 9 -16 74 -129 144 -249 69 -120 126 -222 126 -226 0 -20
100 -111 140 -129 168 -73 355 23 392 202 17 78 -1 144 -68 258 -31 52 -68
117 -83 144 -71 127 -328 566 -346 589 -54 72 -168 112 -265 94z"/>
</g>
</svg>
