<?xml version="1.0" standalone="no"?>
<!DOCTYPE svg PUBLIC "-//W3C//DTD SVG 20010904//EN"
 "http://www.w3.org/TR/2001/REC-SVG-20010904/DTD/svg10.dtd">
<svg version="1.0" xmlns="http://www.w3.org/2000/svg"
 width="512.000000pt" height="512.000000pt" viewBox="0 0 512.000000 512.000000"
 preserveAspectRatio="xMidYMid meet">
<metadata>
Created by potrace 1.11, written by Peter Selinger 2001-2013
</metadata>
<g transform="translate(0.000000,512.000000) scale(0.100000,-0.100000)"
fill="#000000" stroke="none">
<path d="M1468 4829 c-63 -9 -83 -22 -105 -68 -19 -38 -20 -69 -20 -1005 -1
-1073 -5 -1006 66 -1053 l34 -23 1120 0 1120 0 32 24 c67 51 63 -8 63 1051 -1
565 -5 970 -10 985 -15 40 -59 79 -95 86 -45 8 -2147 11 -2205 3z"/>
<path d="M66 2421 c-15 -10 -37 -32 -47 -47 -18 -28 -19 -66 -19 -1004 0
-1087 -4 -1022 68 -1063 32 -19 69 -19 1147 -19 1078 0 1115 0 1147 19 18 10
41 33 51 52 19 31 20 65 20 1006 0 941 -1 975 -20 1007 -10 18 -34 41 -53 51
-33 16 -107 17 -1150 17 -1073 0 -1116 -1 -1144 -19z"/>
<path d="M2760 2422 c-19 -9 -43 -32 -53 -50 -19 -32 -19 -68 -20 -1007 0
-944 1 -974 19 -1006 11 -18 34 -42 52 -52 32 -19 68 -20 1147 -19 1076 0
1115 0 1147 19 72 41 68 -23 68 1062 0 959 0 974 -20 1006 -43 69 32 65 -1197
65 -1035 0 -1110 -1 -1143 -18z"/>
</g>
</svg>
