<svg xmlns="http://www.w3.org/2000/svg" xml:space="preserve" viewBox="0 0 400 300">
  <style>
    .s{fill:#a5a4a4}
  </style>
  <path d="M200 197.98a40 40 0 1 0 0-80 40 40 0 0 0 0 80zm0-15.94a24.06 24.06 0 1 1 0-48.11 24.06 24.06 0 0 1 0 48.11z" class="s"/>
  <path d="M180.49 69.98a24 24 0 0 0-23.28 18.18l-3.46 13.82H136a24 24 0 0 0-24 24v80a24 24 0 0 0 24 24h128a24 24 0 0 0 24-24v-80a24 24 0 0 0-24-24h-17.75l-3.46-13.82a24 24 0 0 0-23.28-18.18h-39.02zm-7.76 22.06a8 8 0 0 1 7.76-6.06h39.01a8 8 0 0 1 7.76 6.06l3.46 13.82a16 16 0 0 0 15.52 12.12H264a8 8 0 0 1 8 8v80a8 8 0 0 1-8 8H136a8 8 0 0 1-8-8v-80a8 8 0 0 1 8-8h17.75a16 16 0 0 0 15.52-12.12l3.46-13.82z" class="s"/>
</svg>